<?xml version="1.0" encoding="UTF-8" standalone="no"?>
<!-- Created with Inkscape (http://www.inkscape.org/) -->

<svg
   width="24.979429mm"
   height="19.363529mm"
   viewBox="0 0 24.979429 19.363529"
   version="1.1"
   id="svg5"
   inkscape:version="1.1 (c68e22c387, 2021-05-23)"
   sodipodi:docname="logo.svg"
   xmlns:inkscape="http://www.inkscape.org/namespaces/inkscape"
   xmlns:sodipodi="http://sodipodi.sourceforge.net/DTD/sodipodi-0.dtd"
   xmlns="http://www.w3.org/2000/svg"
   xmlns:svg="http://www.w3.org/2000/svg">
  <sodipodi:namedview
     id="namedview7"
     pagecolor="#ffffff"
     bordercolor="#111111"
     borderopacity="1"
     inkscape:pageshadow="0"
     inkscape:pageopacity="0"
     inkscape:pagecheckerboard="1"
     inkscape:document-units="mm"
     showgrid="false"
     inkscape:zoom="3.2453899"
     inkscape:cx="61.163683"
     inkscape:cy="-18.025569"
     inkscape:window-width="1920"
     inkscape:window-height="1057"
     inkscape:window-x="1912"
     inkscape:window-y="-8"
     inkscape:window-maximized="1"
     inkscape:current-layer="layer1" />
  <defs
     id="defs2" />
  <g
     inkscape:label="Capa 1"
     inkscape:groupmode="layer"
     id="layer1"
     transform="translate(-52.989914,-170.48249)">
    <path
       style="fill:#000000;stroke:#000000;stroke-width:0.065;stroke-linecap:butt;stroke-linejoin:miter;stroke-miterlimit:4;stroke-dasharray:none;stroke-opacity:1"
       d="m 53.044055,184.12458 c -0.259456,-1.19039 1.884243,-3.36753 3.368071,-1.41856 1.220878,3.37302 3.476271,2.88239 4.544146,2.10344 1.142501,-1.05293 1.540211,-2.37109 0.970174,-3.84082 -0.11604,-0.61002 -0.187656,-1.1982 0.416015,-1.4543 1.173289,-5.77372 6.916063,-6.8854 8.36141,-2.53883 0.65014,2.8696 -0.804742,3.8555 -2.577528,4.30135 -1.035431,0.3437 -1.050316,1.65031 -0.166368,2.16326 0.163223,0.16067 -0.22005,0.42343 -0.375651,0.29756 -0.992812,-1.20812 -0.662133,-2.073 0.149822,-2.81306 3.258562,-0.46209 2.80744,-2.77362 2.508794,-3.7764 -1.546697,-4.56275 -6.76894,-2.70466 -7.332421,2.5432 -0.682874,0.29933 -0.592334,0.75693 -0.457651,1.22355 l 0.176278,1.47083 c 0.393441,2.27179 -2.499165,4.22885 -4.199513,3.37439 -2.074362,-0.84953 -1.742754,-2.06107 -2.398615,-2.79411 -1.013605,-0.95287 -2.403553,-0.51962 -2.986963,1.1585 z"
       id="path869"
       sodipodi:nodetypes="ccccccccccccccccc" />
    <path
       style="fill:#000000;stroke:#000000;stroke-width:0.065;stroke-linecap:butt;stroke-linejoin:miter;stroke-miterlimit:4;stroke-dasharray:none;stroke-opacity:1"
       d="m 60.724593,182.94907 c -3.840321,-0.30182 -4.920939,-3.62144 -2.784735,-5.93811 2.076177,-1.85424 0.915364,-3.95199 -0.95197,-4.221 -1.729899,0.0182 -1.594436,0.81164 -1.750951,1.48375 0.370709,-0.71695 0.689746,-1.49047 2.143267,-1.0219 2.075621,1.22992 1.026481,2.61213 -0.308896,4.0814 -2.043737,2.45469 0.234194,6.10627 3.536994,6.18416 0.61567,-0.17222 0.256639,-0.37355 0.116291,-0.5683 z"
       id="path6229"
       sodipodi:nodetypes="cccccccc" />
    <path
       style="fill:#000000;stroke:#000000;stroke-width:0.065;stroke-linecap:butt;stroke-linejoin:miter;stroke-miterlimit:4;stroke-dasharray:none;stroke-opacity:1"
       d="m 62.809611,183.02834 c 0.266465,6.3801 -6.171305,5.26006 -8.107333,2.9586 1.310497,1.77793 3.336457,2.3753 4.121601,2.4264 2.105064,0.25363 5.108488,-1.51897 4.55884,-5.47458 0,0 -0.439673,-0.10998 -0.573108,0.0896 z"
       id="path6229-4"
       sodipodi:nodetypes="cccccc" />
    <path
       style="fill:#000000;stroke:#000000;stroke-width:0.065;stroke-linecap:butt;stroke-linejoin:miter;stroke-miterlimit:4;stroke-dasharray:none;stroke-opacity:1"
       d="m 63.584069,184.48329 c -0.10224,6.26222 -0.01173,5.68891 -2.005037,3.67552 1.023615,1.9572 2.233826,2.10703 2.292895,0.82622 0.245787,-2.95632 0.065,-0.2751 0.292207,-4.50276 0,0 -0.417721,-0.17583 -0.58007,0.001 z"
       id="path6229-4-7"
       sodipodi:nodetypes="cccccc" />
    <path
       style="fill:#000000;stroke:#000000;stroke-width:0.065;stroke-linecap:butt;stroke-linejoin:miter;stroke-miterlimit:4;stroke-dasharray:none;stroke-opacity:1"
       d="m 65.263492,184.4538 c -0.129678,6.26172 -0.1989,5.68545 1.867582,3.74725 -1.095375,1.91796 -2.310302,2.02287 -2.321912,0.74076 -0.136166,-2.96339 -0.05478,-0.27733 -0.1253,-4.51049 0,0 0.423944,-0.16025 0.579633,0.0225 z"
       id="path6229-4-7-5"
       sodipodi:nodetypes="cccccc" />
    <path
       style="fill:#000000;stroke:#000000;stroke-width:0.065;stroke-linecap:butt;stroke-linejoin:miter;stroke-miterlimit:4;stroke-dasharray:none;stroke-opacity:1"
       d="m 66.237938,182.91539 c -0.266465,6.3801 6.171305,5.26006 8.107333,2.9586 -1.310497,1.77793 -3.336457,2.3753 -4.121601,2.4264 -2.105064,0.25363 -5.108488,-1.51897 -4.55884,-5.47458 0,0 0.439673,-0.10998 0.573108,0.0896 z"
       id="path6229-4-0"
       sodipodi:nodetypes="cccccc" />
    <path
       style="fill:#000000;stroke:#000000;stroke-width:0.065;stroke-linecap:butt;stroke-linejoin:miter;stroke-miterlimit:4;stroke-dasharray:none;stroke-opacity:1"
       d="m 61.342308,181.57277 c -3.202809,-2.14036 -2.523008,-5.56461 0.472966,-6.54157 2.71758,-0.60287 2.730203,-3.00036 1.232606,-4.14774 -1.518069,-0.82968 -1.78771,-0.0713 -2.252765,0.43861 0.673834,-0.44428 1.330241,-0.96317 2.369286,0.15606 1.209642,2.0875 -0.381231,2.78057 -2.264365,3.40968 -2.982768,1.14256 -2.780273,5.44164 0.06305,7.12391 0.621292,0.15068 0.406482,-0.20044 0.379219,-0.43895 z"
       id="path6229-3"
       sodipodi:nodetypes="cccccccc" />
    <path
       style="fill:#000000;stroke:#000000;stroke-width:0.065;stroke-linecap:butt;stroke-linejoin:miter;stroke-miterlimit:4;stroke-dasharray:none;stroke-opacity:1"
       d="m 67.512265,184.11239 c 2.817039,1.2957 11.371017,0.33306 8.648804,-1.25435 -2.529069,-1.16298 -2.035286,-3.5091 -0.329223,-4.31448 1.659008,-0.49049 1.762462,0.30776 2.109403,0.9043 -0.56486,-0.57652 -1.096932,-1.22228 -2.348836,-0.34762 -1.623061,1.78509 -0.21435,2.79838 1.493537,3.81085 2.674346,1.74649 -8.629602,3.14793 -10.538157,1.41669 -0.236943,-0.32373 0.115991,-0.87888 0.481177,-0.68268 0.222988,0.1654 0.239429,0.28902 0.483295,0.46729 z"
       id="path6229-3-4"
       sodipodi:nodetypes="ccccccccc" />
    <text
       xml:space="preserve"
       style="font-size:6.08003px;line-height:1.25;font-family:sans-serif;word-spacing:0px;stroke-width:0.152001"
       x="69.674553"
       y="184.40356"
       id="text9291"><tspan
         sodipodi:role="line"
         id="tspan9289"
         style="stroke-width:0.152001"
         x="69.674553"
         y="184.40356">O</tspan></text>
    <text
       xml:space="preserve"
       style="font-size:10.5833px;line-height:1.25;font-family:sans-serif;word-spacing:0px;stroke-width:0.264583"
       x="80.014748"
       y="203.26512"
       id="text13007"><tspan
         sodipodi:role="line"
         id="tspan13005"
         style="stroke-width:0.264583"
         x="80.014748"
         y="203.26512" /></text>
    <path
       id="path878"
       style="fill:#000000;stroke:#000000;stroke-width:0.139463;stroke-linecap:butt;stroke-linejoin:miter;stroke-miterlimit:4;stroke-dasharray:none;stroke-opacity:1"
       d="M 38.638672 35.896484 C 38.313573 35.903154 37.97426 35.959871 37.625 36.074219 C 35.509156 37.36489 36.696986 39.024451 37.824219 39.519531 C 40.158572 40.431342 41.899618 39.870524 42.333984 38.923828 C 41.921491 37.441707 40.503714 35.858221 38.638672 35.896484 z M 39.068359 35.994141 A 0.63551689 0.63551689 0 0 1 39.728516 36.59375 L 39.728516 36.628906 A 0.63551689 0.63551689 0 0 1 39.103516 37.263672 A 0.63551689 0.63551689 0 0 1 38.458984 36.646484 A 0.63551689 0.63551689 0 0 1 39.068359 35.994141 z "
       transform="matrix(0.26458333,0,0,0.26458333,52.989914,170.48249)" />
    <path
       id="path878-7"
       style="fill:#000000;stroke:#000000;stroke-width:0.139463;stroke-linecap:butt;stroke-linejoin:miter;stroke-miterlimit:4;stroke-dasharray:none;stroke-opacity:1"
       d="M 47.822266 36.523438 C 46.212987 36.511997 44.81984 37.721695 44.242188 38.978516 C 44.520803 39.982056 46.152085 40.81298 48.601562 40.283203 C 49.793081 39.973282 51.227939 38.522226 49.34375 36.912109 C 48.82793 36.646326 48.314902 36.52694 47.822266 36.523438 z M 47.908203 36.6875 A 0.63551689 0.63551689 0 0 1 48.568359 37.287109 L 48.568359 37.322266 A 0.63551689 0.63551689 0 0 1 47.941406 37.957031 A 0.63551689 0.63551689 0 0 1 47.298828 37.339844 A 0.63551689 0.63551689 0 0 1 47.908203 36.6875 z "
       transform="matrix(0.26458333,0,0,0.26458333,52.989914,170.48249)" />
  </g>
</svg>
